<?xml version="1.0" encoding="UTF-8" standalone="no"?>
<svg
   fill="none"
   height="28"
   viewBox="-10.120219 -53.60951 339.70781 343.02233"
   width="30.977554"
   version="1.1"
   id="svg1"
   sodipodi:docname="blazor.svg"
   inkscape:version="1.3.2 (091e20e, 2023-11-25)"
   xmlns:inkscape="http://www.inkscape.org/namespaces/inkscape"
   xmlns:sodipodi="http://sodipodi.sourceforge.net/DTD/sodipodi-0.dtd"
   xmlns="http://www.w3.org/2000/svg"
   xmlns:svg="http://www.w3.org/2000/svg">
  <defs
     id="defs1" />
  <sodipodi:namedview
     id="namedview1"
     pagecolor="#505050"
     bordercolor="#eeeeee"
     borderopacity="1"
     inkscape:showpageshadow="0"
     inkscape:pageopacity="0"
     inkscape:pagecheckerboard="0"
     inkscape:deskcolor="#505050"
     inkscape:zoom="17.930787"
     inkscape:cx="21.91761"
     inkscape:cy="11.683815"
     inkscape:window-width="1472"
     inkscape:window-height="812"
     inkscape:window-x="0"
     inkscape:window-y="37"
     inkscape:window-maximized="1"
     inkscape:current-layer="svg1" />
  <path
     d="m 346.83325,56.270541 c -8.20386,51.443039 -34.38336,98.305439 -73.88201,132.251719 -39.49865,33.94629 -89.75383,52.77507 -141.8256,53.13575 -10.54765,0.40546 -21.10898,-0.23631 -31.5298,-1.9141 A 96.639707,96.666194 0 0 1 19.235787,148.62101 93.849549,93.875272 0 0 1 46.764359,82.999479 93.825925,93.85164 0 0 1 178.42032,82.06917 a 93.848306,93.874028 0 0 1 28.45365,65.22478 c 0.39414,15.55903 -6.34376,29.20645 -20.19135,29.60071 -14.79506,0 -21.73067,-10.56048 -21.73067,-24.79246 V 112.55541 A 24.218677,24.225315 0 0 0 140.926,88.310193 H 107.78602 A 57.675714,57.691522 0 0 0 59.146,114.37995 57.691877,57.70769 0 0 0 98.42084,203.0179 57.683174,57.698984 0 0 0 150.39439,184.47269 l 1.15884,-1.72879 1.16007,1.91907 a 40.807936,40.819121 0 0 0 34.79741,16.5764 45.995343,46.00795 0 0 0 42.60836,-48.09617 125.13439,125.16869 0 0 0 -3.43299,-30.56708 C 220.54003,94.301226 204.14846,69.302313 180.67085,52.401307 A 117.06854,117.10063 0 0 0 24.954122,69.462754 117.0959,117.12799 0 0 0 -4.7876767,147.93821 a 118.55936,118.59186 0 0 0 34.1595497,81.86708 118.53325,118.56574 0 0 0 81.377137,35.2522 c 0,0 8.67885,0.78977 18.46304,0.56465 a 249.84602,249.91451 0 0 0 133.9985,-39.99204 c 0.56823,-0.39551 1.13646,0.39426 0.75846,0.9701 A 196.67511,196.72901 0 0 1 110.75275,289.27907 138.24589,138.28379 0 0 1 10.086953,248.39652 138.2832,138.3211 0 0 1 -29.968735,147.36609 143.11251,143.15174 0 0 1 27.504306,32.731764 140.1346,140.17301 0 0 1 110.18576,5.4282247 h 44.47842 a 125.13066,125.16496 0 0 0 92.3177,-40.7743457 1.7283068,1.7287805 0 0 1 0.93875,-0.536047 1.7631217,1.7636049 0 0 1 1.88995,0.824592 c 0.19024,0.319637 0.27603,0.690268 0.24495,1.062142 a 125.49497,125.52937 0 0 1 -19.40678,56.141837 1.7233333,1.7238056 0 0 0 0.14299,1.879272 1.7245767,1.7250493 0 0 0 1.77058,0.63057 134.48217,134.51902 0 0 0 93.50016,-77.127243 c 0.21511,-0.344513 0.51104,-0.630571 0.86415,-0.833297 a 2.3649206,2.3655688 0 0 1 2.3239,0 c 0.35312,0.201483 0.65029,0.48754 0.86291,0.833297 A 170.46577,170.51248 0 0 1 346.83325,56.270541 Z M 110.63462,112.06165 a 34.594735,34.604217 0 0 0 -33.935737,41.36015 34.603439,34.612923 0 0 0 27.182917,27.19408 34.595979,34.60546 0 0 0 41.34383,-33.94876 v -32.30831 a 2.4954762,2.4961601 0 0 0 -2.3674,-2.36806 z"
     fill="#702af7"
     id="path1"
     style="stroke-width:1.24355" />
</svg>
