<?xml version="1.0" encoding="UTF-8" standalone="no"?>
<svg
   viewBox="65.1 102.4 213.80928 295.2"
   width="25.605902"
   height="28"
   version="1.1"
   id="svg9"
   sodipodi:docname="sql-server.svg"
   inkscape:version="1.3.2 (091e20e, 2023-11-25)"
   xmlns:inkscape="http://www.inkscape.org/namespaces/inkscape"
   xmlns:sodipodi="http://sodipodi.sourceforge.net/DTD/sodipodi-0.dtd"
   xmlns="http://www.w3.org/2000/svg"
   xmlns:svg="http://www.w3.org/2000/svg">
  <defs
     id="defs9" />
  <sodipodi:namedview
     id="namedview9"
     pagecolor="#505050"
     bordercolor="#eeeeee"
     borderopacity="1"
     inkscape:showpageshadow="0"
     inkscape:pageopacity="0"
     inkscape:pagecheckerboard="0"
     inkscape:deskcolor="#505050"
     inkscape:zoom="27.578015"
     inkscape:cx="-0.39886844"
     inkscape:cy="3.6079463"
     inkscape:window-width="1472"
     inkscape:window-height="812"
     inkscape:window-x="0"
     inkscape:window-y="37"
     inkscape:window-maximized="1"
     inkscape:current-layer="svg9" />
  <linearGradient
     id="a"
     gradientTransform="matrix(141.55022,-86.502915,-83.639226,-146.39671,-25.17688,673.4936)"
     gradientUnits="userSpaceOnUse"
     x1="1.511"
     x2="1.6569999"
     y1="1.192"
     y2="1.192">
    <stop
       offset="0"
       stop-color="#909ca9"
       id="stop1" />
    <stop
       offset="1"
       stop-color="#ededee"
       id="stop2" />
  </linearGradient>
  <linearGradient
     id="b"
     gradientTransform="matrix(113.89463,0,0,-117.79422,-22.260471,-956.21208)"
     gradientUnits="userSpaceOnUse"
     x1="0.98100001"
     x2="1.127"
     y1="-9.224"
     y2="-9.224">
    <stop
       offset="0"
       stop-color="#939fab"
       id="stop3" />
    <stop
       offset="1"
       stop-color="#dcdee1"
       id="stop4" />
  </linearGradient>
  <radialGradient
     id="c"
     cx="1.9349999"
     cy="2.23"
     gradientTransform="matrix(-145.21283,-22.559348,-44.115246,300.36928,552.66637,-417.08085)"
     gradientUnits="userSpaceOnUse"
     r="0.146">
    <stop
       offset="0"
       stop-color="#ee352c"
       id="stop5" />
    <stop
       offset="1"
       stop-color="#a91d22"
       id="stop6" />
  </radialGradient>
  <path
     d="m 210.68441,240.11358 -57.14612,19.35871 -49.77242,22.73182 -13.896579,3.81308 c -3.545044,3.51976 -7.231891,7.03953 -11.344142,10.55929 -4.395856,3.95974 -8.508107,7.47951 -11.627747,10.11933 -3.545045,2.93313 -8.64991,8.21279 -11.344143,11.58589 -3.97045,5.13299 -7.09009,10.5593 -8.366306,14.66569 -2.41063,7.4795 -1.276216,15.10566 3.403244,22.14519 5.813873,8.94607 17.583421,18.0388 31.196393,24.19839 6.948287,3.22645 18.71783,7.18618 27.50955,9.53269 14.60558,3.81309 42.96593,8.06614 58.56413,8.65276 3.11964,0.14666 7.37369,0.14666 7.5155,0 0.2836,-0.29331 2.83603,-4.98633 5.53026,-10.99927 9.64253,-20.23865 16.44902,-39.30404 20.27766,-55.4363 2.26883,-9.82602 3.97045,-22.87847 5.24666,-38.4241 0.28361,-4.39971 0.42541,-18.91874 0.14181,-23.75842 -0.4254,-8.06613 -1.13442,-14.51903 -2.12703,-20.97194 -0.1418,-0.87993 -0.2836,-1.75988 -0.1418,-1.75988 0.1418,-0.14666 0.70901,-0.29331 7.7991,-2.34651 z m -13.04577,7.91947 c 0.56722,0 1.84343,13.78575 2.26883,22.4385 0.14181,1.75989 0,3.0798 0,3.0798 -0.2836,0 -7.23189,-4.25305 -12.33675,-7.4795 -4.25405,-2.78648 -12.47856,-8.5061 -13.75478,-9.5327 -0.4254,-0.29331 -0.4254,-0.29331 3.11964,-1.61323 5.95568,-2.19985 20.13586,-6.89287 20.70306,-6.89287 z m -29.21116,9.97267 c 0.4254,0 1.41801,0.58663 3.82865,2.0532 8.93351,5.71961 20.98666,12.75915 26.23332,15.10566 1.55983,0.73328 1.70163,0.43997 -1.84342,3.07979 -7.7991,5.57297 -17.72522,10.99927 -29.63657,16.42557 -2.12703,1.0266 -3.82865,1.75988 -3.97045,1.75988 -0.14181,0 0.1418,-1.17325 0.56721,-2.49316 2.83604,-11.14593 4.53765,-22.43851 4.67946,-31.38458 -0.28361,-4.54636 -0.28361,-4.54636 0.1418,-4.54636 z m -5.95567,2.34651 c 0.2836,0.29331 0.1418,10.26599 -0.28361,13.05247 -0.70901,6.4529 -1.98523,12.61249 -3.97045,19.50536 -0.4254,1.61322 -0.85081,3.07979 -0.99261,3.07979 -0.14181,0.29332 -6.09748,-5.71962 -8.08271,-8.06613 -3.40323,-3.95973 -5.95567,-8.06612 -7.9409,-12.02586 -0.99261,-2.0532 -2.55243,-6.01293 -2.41062,-6.01293 0.709,-0.58663 23.53909,-9.67935 23.6809,-9.5327 z m -28.21857,11.43924 c 0.28361,0.14665 0.56722,0.87993 0.70902,1.61323 1.41801,3.95973 4.53765,9.67935 7.23188,13.19912 2.97784,3.95973 6.80649,8.35944 9.92613,11.14592 0.99261,0.87994 1.98523,1.75988 2.12703,1.90654 0.2836,0.29331 0.2836,0.29331 -6.66468,2.93313 -8.22451,3.22645 -17.01622,6.45291 -27.22595,9.82601 -2.41062,0.87995 -4.82126,1.61323 -7.23188,2.49318 -0.42541,0.14665 -0.28361,-0.14666 0.85081,-1.90654 5.10486,-8.21279 12.76215,-24.19839 17.01621,-35.63763 0.70901,-1.90654 1.41801,-3.95973 1.55982,-4.3997 0.1418,-0.58664 0.42541,-0.87995 0.99261,-1.17326 0.28361,0.14665 0.5672,0 0.709,0 z m -8.6499,3.66642 c 0.1418,0.14666 -2.12703,4.83968 -4.25406,9.23938 -4.25404,8.50611 -8.7917,16.71888 -14.88918,26.83821 -0.99262,1.75989 -1.98523,3.37312 -2.12702,3.51977 -0.28361,0.29332 -0.28361,0.29332 -0.99261,-1.17326 -1.41803,-2.93313 -2.69425,-6.89287 -3.26145,-10.41264 -0.709009,-3.51976 -0.567207,-9.53269 0.28361,-13.34578 0.5672,-2.78647 0.5672,-2.78647 1.84342,-3.3731 5.24666,-2.78648 23.11368,-11.43923 23.39729,-11.29258 z m 74.44594,3.22645 v 1.90654 c 0,9.97267 -0.99261,23.61176 -2.55244,33.58443 -0.2836,1.75988 -0.4254,3.22645 -0.5672,3.22645 0,0 -1.27622,-0.29331 -2.69423,-0.73329 -6.52289,-2.0532 -13.47118,-5.13299 -19.85225,-8.79941 -4.25406,-2.34651 -10.35154,-6.30624 -10.06793,-6.45291 0,0 1.84342,-1.02659 3.97045,-2.19985 8.5081,-4.54636 16.5908,-9.53269 23.68089,-14.37237 2.69424,-1.75988 6.66469,-4.83967 7.5155,-5.57297 z M 92.988931,291.88346 c 0.141801,0 0.141801,0.29331 -0.141802,1.90654 -0.141801,1.17326 -0.425405,3.37311 -0.425405,4.83968 -0.283604,6.4529 0.709008,11.29258 3.828648,17.89214 0.85081,1.75988 1.559819,3.37311 1.559819,3.37311 -0.283603,0.29331 -28.927564,8.94607 -37.861077,11.43923 -2.694234,0.73328 -4.963063,1.46658 -5.246666,1.46658 -0.283603,0.14665 -0.283603,0 -0.283603,-0.7333 0.992612,-6.59956 5.813872,-15.10565 12.620359,-22.4385 4.537657,-4.83967 8.082701,-7.62615 14.180179,-11.29258 4.395855,-2.34651 11.060539,-6.30624 11.769548,-6.4529 -0.141802,0 -0.141802,0 0,0 z m 67.355849,12.46584 c 0,0 1.13441,0.58662 2.26883,1.3199 9.21711,5.57297 22.12107,10.70596 33.03981,13.34578 l 0.99261,0.29332 -1.41801,0.73328 c -5.81387,3.37311 -24.67351,11.43924 -43.95856,18.91874 -2.83603,1.0266 -5.53026,2.19985 -6.09748,2.34652 -0.5672,0.29331 -0.99261,0.29331 -0.99261,0.29331 0,0 0.70902,-1.61323 1.70163,-3.51977 5.38846,-10.41264 10.77693,-23.17178 13.61297,-31.9712 0.5672,-1.0266 0.85081,-1.75988 0.85081,-1.75988 z m -6.80649,2.34651 c 0,0 -0.2836,1.02659 -0.709,2.0532 -3.82866,9.38603 -8.64992,19.65202 -15.03099,31.23791 -1.55983,2.93314 -2.97784,5.27964 -2.97784,5.27964 0,0 -1.27622,-0.73328 -2.83604,-1.75988 -9.21712,-5.86627 -17.29982,-12.9058 -22.54649,-19.94534 l -0.709,-1.02659 3.97045,-1.17326 c 14.03837,-3.95973 26.09153,-8.21278 38.00288,-13.49243 1.27621,-0.58663 2.69423,-1.17325 2.83603,-1.17325 z m 42.68234,15.39897 c 0,1.0266 -2.12703,10.26598 -3.97045,16.86554 -1.55982,5.57296 -2.83603,9.97267 -5.24667,17.74548 -0.99261,3.37311 -1.98522,6.15959 -1.98522,6.15959 0,0 -0.28361,0 -0.56721,-0.14665 -12.76216,-2.34651 -24.38991,-5.71962 -35.16684,-10.26598 -2.97784,-1.31992 -7.37369,-3.22646 -7.6573,-3.51977 -0.1418,-0.14666 2.55243,-1.31992 5.81387,-2.78648 19.71045,-8.94607 39.98811,-18.91874 47.07819,-23.31845 0.85082,-0.43997 1.55983,-0.73328 1.70163,-0.73328 z m -98.55224,3.51976 c 0.141801,0.14666 -5.388468,8.21279 -13.045765,19.35871 -2.694234,3.95974 -5.813873,8.5061 -6.948288,10.11933 -1.134413,1.75989 -2.977837,4.39971 -3.97045,6.01293 l -1.843423,2.93314 -1.985225,-1.75988 c -2.268828,-1.90654 -6.239278,-6.15959 -8.082701,-8.5061 -3.686847,-4.83968 -6.239279,-9.82601 -7.231891,-14.37237 -0.425406,-2.19986 -0.425406,-3.22646 0,-3.37312 0.709009,-0.14665 12.194954,-2.93313 22.971889,-5.57295 5.955675,-1.46658 12.903963,-3.0798 15.456395,-3.81309 2.552432,-0.58662 4.537657,-1.0266 4.679459,-1.0266 z m 5.53027,2.19985 1.41801,1.61323 c 6.23929,7.18619 12.62037,12.46584 20.27766,17.15886 1.41801,0.73328 2.41063,1.46657 2.26882,1.61323 -0.28359,0.29331 -26.65873,9.97266 -38.99548,14.22571 -6.806486,2.49317 -12.478558,4.54637 -12.620359,4.54637 l -0.850811,-0.58663 -0.709008,-0.58662 1.276216,-1.90654 c 4.112251,-6.01294 9.217116,-12.75916 20.277655,-26.5449 z m 34.45783,25.51831 c 0,0 1.98523,0.73328 4.25406,1.61323 5.67207,2.19985 10.06792,3.51976 16.02359,5.13298 7.3737,1.90654 18.00883,3.81309 24.24811,4.39971 0.99262,0.14666 1.41802,0.14666 1.27622,0.29331 -0.2836,0.14666 -6.66469,2.34651 -11.34415,3.95974 -7.37368,2.34651 -30.06198,9.38604 -48.63801,14.81235 -3.40323,1.02659 -6.38107,1.90653 -6.52288,1.90653 -0.4254,0.14667 -1.84342,-0.29331 -1.84342,-0.43997 0,-0.14665 0.99262,-1.46656 2.26882,-2.93313 6.23928,-7.62617 12.33676,-16.27891 17.58343,-24.34505 1.41801,-2.63982 2.69423,-4.3997 2.69423,-4.3997 z m -7.65729,0.14665 c 0,0 -2.97784,5.13299 -8.36631,13.9324 -2.26883,3.66643 -4.82126,7.91948 -5.81387,9.38605 -0.85081,1.46657 -2.12703,3.66642 -2.83604,4.98633 l -1.27621,2.34651 -0.70901,-0.14665 c -1.55983,-0.43997 -12.478559,-4.39971 -15.314595,-5.57297 -3.545045,-1.46656 -7.231891,-3.22645 -10.067927,-4.83967 -3.403243,-1.90654 -7.799098,-4.83968 -7.373693,-4.83968 0.141801,0 5.955675,-1.75988 13.187567,-3.66642 18.859638,-5.27965 29.352968,-8.35945 36.301258,-10.70596 1.13441,-0.58662 2.26883,-0.87994 2.26883,-0.87994 z m 53.74287,13.05247 c 0.2836,0.43997 -6.80649,20.53196 -9.35891,26.83821 -0.56722,1.46657 -0.70901,1.75988 -1.13442,1.75988 -0.70901,0 -10.91874,-1.46657 -17.01622,-2.49316 -10.77693,-1.75989 -28.78576,-4.98635 -33.32341,-6.01294 l -0.99261,-0.29331 6.38107,-1.46657 c 13.89657,-3.22645 20.41946,-4.98634 27.22595,-7.03953 8.5081,-2.63983 16.87441,-6.01294 25.38251,-10.11933 1.41803,-0.58663 2.55244,-1.17325 2.83604,-1.17325 z"
     fill="url(#a)"
     id="path6"
     style="fill:url(#a);stroke-width:1.44209" />
  <path
     d="m 151.69487,102.40277 c -0.99261,-0.14667 -16.30721,5.57296 -26.23333,9.67935 -13.32936,5.57296 -23.6809,10.99927 -30.061979,15.69229 -2.41063,1.75988 -5.388468,4.83967 -5.813873,6.01293 -0.141801,0.43997 -0.283604,1.02659 -0.283604,1.46656 l 5.813873,5.71963 13.754773,4.54636 32.75621,6.01293 37.43567,6.59956 0.42541,-3.37311 h -0.2836 l -4.96307,-0.73328 -0.99261,-1.75988 c -5.10487,-9.23939 -10.77693,-20.82528 -14.03838,-28.5981 -2.55243,-6.01293 -4.96306,-13.05246 -6.23928,-18.03879 -0.70901,-3.07979 -0.85081,-3.22645 -1.27621,-3.22645 z m -0.70902,2.19985 c 0.14181,0 0.28361,1.31991 0.42541,2.78648 0.70901,6.30625 2.12703,12.31917 4.25406,18.77208 1.55982,4.98634 1.55982,4.69302 -0.28361,4.10639 -4.39586,-1.3199 -24.1063,-4.83967 -38.42828,-6.89287 -2.26883,-0.29331 -4.25405,-0.58663 -4.25405,-0.73328 -0.1418,-0.14666 10.35153,-5.86628 14.88918,-8.06613 5.95568,-2.78648 22.26289,-9.67936 23.39729,-9.97267 z m -41.68971,20.092 1.70162,0.58662 c 9.21711,3.22645 32.189,7.77281 44.95116,8.79941 1.41802,0.14666 2.69424,0.29332 2.69424,0.29332 0,0 -1.13442,0.73328 -2.69424,1.46657 -6.09747,3.22645 -12.90397,7.03953 -17.58342,10.11932 -1.41801,0.87994 -2.69423,1.61323 -2.83604,1.61323 -0.1418,0 -1.13441,-0.14666 -1.98522,-0.29332 l -1.70162,-0.29331 -4.25406,-4.39971 c -7.65729,-7.62616 -13.61296,-13.49243 -15.88179,-15.83894 z m -1.70163,1.3199 6.09748,7.91948 c 3.26144,4.3997 6.66468,8.5061 7.3737,9.53269 0.709,0.87994 1.27621,1.75989 1.27621,1.75989 -0.14181,0.14665 -8.79171,-1.61323 -13.32937,-2.63983 -4.67945,-1.17326 -6.66468,-1.61322 -9.500717,-2.63982 l -2.410631,-0.73329 v -0.58662 c 0,-2.93314 3.686848,-7.4795 9.926128,-12.02587 z m 51.75765,10.70596 c 0.14181,0 0.42541,0.43996 0.85081,1.61322 1.41803,3.37311 6.09748,12.31918 7.2319,14.07906 0.2836,0.58663 0.99261,0.58663 -5.10487,-0.43997 -14.60558,-2.49316 -19.28505,-3.22645 -19.28505,-3.37311 0,0 0.42541,-0.29331 0.99262,-0.73328 4.53766,-2.63982 9.07531,-5.86628 13.18757,-9.38604 0.99261,-0.87995 1.84342,-1.61323 2.12702,-1.75988 -0.1418,0 0,0 0,0 z"
     fill="url(#b)"
     id="path7"
     style="fill:url(#b);stroke-width:1.44209" />
  <path
     d="m 89.869291,133.05405 c 0,0 -0.992612,1.61323 0,3.95974 0.567208,1.46657 2.268829,3.22645 4.112253,4.98633 0,0 19.285046,19.35871 21.553866,22.14519 10.63513,12.75915 15.3146,25.22499 15.74,42.38385 0.2836,11.14592 -1.70162,20.82527 -6.80649,32.11785 -8.93351,20.23865 -27.934945,42.67715 -57.146113,67.46217 l 4.254054,-1.46657 c 2.694234,-2.19985 6.522882,-4.39971 15.314593,-9.38604 20.419466,-11.5859 43.249536,-22.14519 71.326296,-32.9978 40.41351,-15.69228 106.91855,-34.17106 144.77962,-40.18398 l 3.97045,-0.58664 -0.5672,-1.02659 c -3.40325,-5.57297 -5.81388,-8.94607 -8.64991,-12.6125 -8.2245,-10.70595 -18.29243,-19.21204 -30.62919,-26.39824 -16.87441,-9.826 -38.85369,-17.45217 -66.64684,-23.17178 -5.24666,-1.0266 -16.73261,-3.0798 -26.09152,-4.54636 -19.85226,-3.22646 -32.61441,-5.42631 -46.65279,-7.91948 -5.10487,-0.87994 -12.62036,-2.19985 -17.58342,-3.3731 -2.55244,-0.58664 -7.5155,-1.75989 -11.485947,-3.22646 -3.403244,-1.02659 -7.799099,-2.34651 -8.791712,-6.15959 z m 11.202339,11.29258 c 0,0 0.70901,0.29332 1.70162,0.58663 1.70162,0.58663 3.82865,1.31991 6.23928,1.90654 1.84343,0.58663 3.82865,1.0266 5.67207,1.61322 2.55244,0.73329 4.82126,1.31992 4.82126,1.31992 0.28361,0.29331 4.67946,14.81235 6.09748,20.23865 0.5672,2.0532 0.99261,3.95974 0.99261,3.95974 0,0 -0.5672,-0.73328 -1.13441,-1.75989 -5.10487,-9.23938 -13.04577,-18.47876 -22.26288,-26.10493 -1.27622,-1.02659 -2.12703,-1.75988 -2.12703,-1.75988 z m 21.27027,6.01293 c 0.2836,0 1.13441,0.14666 2.26883,0.43997 7.37369,1.75989 20.56125,4.25305 28.92756,5.71963 1.41801,0.29331 2.55243,0.43996 2.55243,0.58662 0,0.14666 -0.5672,0.43997 -1.13442,0.73329 -1.41801,0.73328 -7.23188,4.25305 -9.0753,5.57296 -4.82127,3.37311 -9.07532,6.89287 -12.19496,10.11933 l -2.26883,2.34651 c 0,0 -0.28361,-0.73329 -0.4254,-1.75989 -1.55982,-6.15959 -4.82127,-15.39897 -7.79911,-21.85187 -0.5672,-0.87994 -0.99261,-1.90655 -0.8508,-1.90655 -0.14181,0 -0.14181,0 0,0 z m 37.29387,7.33286 c 0.2836,0.14665 0.70901,1.61321 1.55982,4.98633 1.55982,6.4529 2.26883,13.78574 2.12702,20.53196 -0.1418,1.90654 -0.1418,3.66642 -0.2836,3.81308 l -0.14181,0.43997 -2.26882,-0.73328 c -4.67946,-1.46657 -12.19495,-3.81308 -18.57604,-5.71963 -3.68684,-1.02659 -6.66468,-1.90654 -6.66468,-2.05319 0,-0.29331 5.38847,-5.86628 7.65729,-7.91947 4.39586,-3.95974 16.30721,-13.49244 16.59082,-13.34577 z m 2.97784,0.43996 c 0.1418,-0.14665 17.86702,3.07979 25.94973,4.69302 5.95566,1.17325 14.74738,3.07979 15.31459,3.37311 0.2836,0.14665 -0.70901,0.58663 -3.54505,1.90654 -11.34414,5.27965 -19.85225,10.11933 -28.36036,15.83894 -2.26882,1.46657 -4.11225,2.78649 -4.11225,2.78649 0,0 -0.1418,-1.31992 -0.1418,-2.78649 0,-8.50609 -1.70162,-17.01219 -4.67946,-24.34504 -0.14181,-0.73328 -0.4254,-1.31991 -0.4254,-1.46657 z m 45.94377,9.38604 c 0.1418,0.14666 -0.4254,3.81308 -0.99261,5.86628 -1.55982,6.59956 -5.81387,16.57222 -10.91874,25.81161 -0.85081,1.61323 -1.70162,2.93314 -1.84342,3.0798 -0.1418,0 -1.27622,-0.58664 -2.55243,-1.46657 -4.96306,-3.0798 -10.77693,-5.86628 -16.87441,-8.50611 -1.70162,-0.73328 -3.26145,-1.3199 -3.26145,-1.46656 -0.2836,-0.29332 13.61297,-9.82602 20.98667,-14.37238 5.81387,-3.66642 15.31459,-9.09272 15.45639,-8.94607 z m 3.26145,0.58663 c 0.4254,0 8.2245,2.19985 12.33676,3.51977 10.20972,3.07979 21.83747,7.47949 29.35296,11.14592 l 3.11964,1.46657 -2.26883,0.58663 c -18.57603,4.3997 -34.45783,9.53269 -49.77243,15.9856 -1.27621,0.58662 -2.41062,1.02659 -2.41062,1.02659 -0.14181,0 0.28359,-1.02659 0.85081,-2.34651 4.67945,-10.11932 7.65729,-20.67862 8.3663,-29.77134 0.2836,-0.87994 0.42541,-1.61323 0.42541,-1.61323 z m -78.27459,18.62543 c 0.1418,-0.14666 6.09748,1.3199 9.35892,2.34651 4.96306,1.46656 15.31459,4.98633 15.31459,5.27964 0,0 -1.13442,1.0266 -2.55243,2.34651 -5.67208,4.83968 -11.06054,9.97267 -17.58343,16.57223 -1.98522,1.90654 -3.54504,3.51976 -3.68684,3.51976 -0.14181,0 -0.14181,-0.29331 -0.14181,-0.58662 0.99262,-7.4795 0.70902,-17.15886 -0.5672,-26.98487 0,-1.46657 -0.1418,-2.49316 -0.1418,-2.49316 z m 126.20359,0.14665 c 0.14181,0.14666 -2.83603,4.69302 -4.53766,7.33284 -2.55243,3.81309 -6.38107,8.94607 -15.03099,20.092 -4.53765,5.86628 -9.64252,12.61249 -11.34414,14.81235 -1.70162,2.19985 -3.11964,4.10639 -3.26144,4.10639 0,0 -0.56721,-0.73329 -1.27622,-1.75988 -4.82126,-7.47951 -10.63513,-14.07906 -17.44162,-19.94534 -1.27622,-1.17326 -2.69423,-2.34651 -3.26144,-2.63982 -0.4254,-0.29332 -0.85081,-0.73329 -0.85081,-0.73329 0,-0.14666 7.3737,-3.37311 12.90396,-5.71962 9.78432,-4.10639 23.1137,-9.09272 33.03982,-12.17252 5.38846,-1.90654 11.06054,-3.51976 11.06054,-3.37311 z m 3.40324,0.87994 c 0.1418,0 1.27622,0.43997 2.41064,1.31992 10.49332,6.15958 20.84486,14.22571 28.92756,22.4385 2.26882,2.34651 7.9409,8.35944 7.7991,8.5061 0,0 -1.98523,0.14666 -4.25406,0.29331 -18.15063,1.46656 -41.40612,5.4263 -63.81081,10.99927 -1.55981,0.29331 -2.83603,0.73328 -2.97783,0.73328 -0.1418,0 1.55982,-1.75988 3.68685,-3.81308 13.18756,-13.05246 19.14323,-21.4119 26.23333,-36.07759 0.99261,-2.49317 1.84342,-4.25305 1.98522,-4.39971 -0.1418,0 -0.1418,0 0,0 z m -96.28341,10.11933 c 0.56721,0.14666 6.23928,2.93314 10.49333,4.98633 3.82865,2.0532 9.78433,5.27965 10.06793,5.4263 0,0 -1.98522,1.17326 -4.53766,2.49318 -8.0827,4.25304 -15.03099,8.21278 -22.40468,12.75914 -2.12703,1.31992 -3.82865,2.34651 -3.82865,2.34651 -0.1418,0 -0.1418,-0.14666 0.99262,-2.34651 3.82864,-7.33284 6.94828,-16.13225 8.79171,-24.63836 0.1418,-0.58662 0.2836,-1.02659 0.4254,-1.02659 z m -5.53027,1.17325 c 0.1418,0.14666 -1.27622,5.57297 -2.26883,8.65276 -1.70162,5.71962 -4.82126,12.75915 -7.6573,18.18545 -0.709,1.31992 -1.70161,3.0798 -2.26883,4.10639 l -1.13441,1.75989 -2.41063,-2.34651 c -2.83603,-2.78648 -5.10486,-4.54636 -8.0827,-6.15959 -1.13442,-0.58663 -2.12703,-1.17325 -2.12703,-1.31991 0,-0.29332 7.3737,-7.33285 13.04577,-12.31918 4.11225,-3.66643 12.76216,-10.70596 12.90396,-10.5593 z m 34.31603,14.51904 2.12703,1.46656 c 4.82126,3.22646 10.49333,7.62616 14.88918,11.43924 2.41064,2.0532 7.2319,6.45291 8.22451,7.62616 l 0.5672,0.58662 -3.54504,1.02661 c -19.85225,5.71961 -35.02504,10.70595 -52.89207,17.45217 -1.98522,0.73328 -3.68684,1.3199 -3.82864,1.3199 -0.28361,0 -0.4254,0.29332 3.97045,-3.95974 11.34414,-10.8526 21.55387,-22.87847 29.06937,-34.46436 z m -9.07531,2.34651 c 0.1418,0.14665 -5.81388,8.65275 -9.35892,13.63908 -4.25406,5.86628 -11.76955,15.54563 -16.87441,21.85188 -2.12703,2.63982 -3.97045,4.83968 -4.11226,4.83968 -0.1418,0 -0.1418,-0.58663 -0.1418,-1.61323 0,-5.4263 -1.27621,-11.14592 -3.68684,-16.13226 -0.99262,-2.05319 -1.13442,-2.49316 -0.99262,-2.78647 0.85081,-0.73329 13.32938,-8.21279 21.41207,-12.6125 5.24667,-2.93313 13.61298,-7.33284 13.75478,-7.18618 z m -54.59369,13.78574 c 0.1418,0 1.13441,0.58663 2.26882,1.17326 2.69425,1.61322 5.24667,3.3731 7.3737,5.13299 0.14181,0.14665 -0.99261,1.02659 -2.55244,2.19985 -4.11224,3.07979 -10.35152,7.91947 -13.89657,10.85261 -3.82865,3.07979 -3.97045,3.22645 -3.54504,2.49317 2.83603,-4.54636 4.25405,-7.03953 5.81387,-10.26599 1.27622,-2.93313 2.69423,-6.30624 3.68684,-9.38604 0.28361,-1.17325 0.70902,-2.19985 0.85082,-2.19985 z M 146.59,241.58015 c 0.28361,0 0.4254,0.29332 1.70162,2.19985 2.41064,3.81308 4.39586,8.94607 4.82126,13.05246 l 0.14181,0.87995 -5.95568,2.34651 c -10.63513,4.25305 -20.41945,8.5061 -26.94234,11.58589 -1.84342,0.87994 -5.10485,2.49317 -7.23188,3.51977 -2.12703,1.17325 -3.82865,1.90653 -3.82865,1.90653 0,0 1.27621,-1.02659 2.97784,-2.34651 12.90395,-9.67935 24.10629,-20.3853 32.4726,-30.9446 0.85081,-1.17325 1.70162,-2.19985 1.84342,-2.19985 z m -6.66468,1.61322 c 0.1418,0.14666 -4.82127,6.01294 -8.0827,9.5327 -8.36631,8.79941 -16.5908,15.69229 -26.80054,22.43851 -1.27621,0.87994 -2.41063,1.61322 -2.55243,1.75987 -0.2836,0.14666 0.1418,-0.29331 4.53766,-5.27964 2.83603,-3.22645 4.96306,-5.86628 7.51549,-9.09273 1.70163,-2.19985 1.98523,-2.49316 4.25406,-4.25305 6.23928,-4.98633 20.84486,-15.25231 21.12846,-15.10566 z"
     fill="url(#c)"
     id="path8"
     style="fill:url(#c);stroke-width:1.44209" />
</svg>
